<?xml version="1.0" encoding="UTF-8" standalone="no"?>
<svg
   width="107"
   height="126"
   viewBox="0 0 107 126"
   fill="none"
   version="1.1"
   id="svg22"
   sodipodi:docname="ahorcado.svg"
   inkscape:version="1.2 (1:1.2.1+202207142221+cd75a1ee6d)"
   xmlns:inkscape="http://www.inkscape.org/namespaces/inkscape"
   xmlns:sodipodi="http://sodipodi.sourceforge.net/DTD/sodipodi-0.dtd"
   xmlns="http://www.w3.org/2000/svg"
   xmlns:svg="http://www.w3.org/2000/svg">
  <defs
     id="defs26" />
  <sodipodi:namedview
     id="namedview24"
     pagecolor="#ffffff"
     bordercolor="#666666"
     borderopacity="1.0"
     inkscape:pageshadow="2"
     inkscape:pageopacity="0.0"
     inkscape:pagecheckerboard="0"
     showgrid="false"
     inkscape:zoom="2.8284271"
     inkscape:cx="97.403959"
     inkscape:cy="95.989746"
     inkscape:window-width="1920"
     inkscape:window-height="996"
     inkscape:window-x="0"
     inkscape:window-y="0"
     inkscape:window-maximized="1"
     inkscape:current-layer="svg22"
     inkscape:showpageshadow="2"
     inkscape:deskcolor="#d1d1d1" />
  <path
     id="path20"
     style="fill:#ccaaff;stroke:#ccaaff;stroke-width:1.48597;stroke-miterlimit:4;stroke-dasharray:none;stroke-opacity:1"
     d="m 88.105621,47.83665 c 6.03439,0 10.926729,-4.729711 10.926729,-10.564115 0,-5.834405 -4.892339,-10.564116 -10.926729,-10.564116 -6.03478,0 -10.92671,4.729711 -10.92671,10.564116 0,5.834404 4.89193,10.564115 10.92671,10.564115 z m 0,1.760687 c 7.04047,0 12.747849,-5.517991 12.747849,-12.324802 0,-6.806812 -5.707379,-12.324802 -12.747849,-12.324802 -7.04044,0 -12.74783,5.51799 -12.74783,12.324802 0,6.806811 5.70739,12.324802 12.74783,12.324802 z m 0.21139,-0.0435 c 0.43681,0.150547 0.52987,0.539112 0.20867,0.87122 l -13.4094,13.864844 c -0.32119,0.332111 -0.93143,0.478279 -1.36824,0.327728 -0.43681,-0.150549 -0.52988,-0.539111 -0.20868,-0.871222 l 13.4094,-13.864842 c 0.3212,-0.33211 0.93143,-0.478278 1.36825,-0.327728 z m -0.45547,-2.2e-5 c -0.43678,0.15054 -0.52984,0.539086 -0.20866,0.871172 l 13.409459,13.864909 c 0.32118,0.332087 0.93138,0.478249 1.36817,0.327709 0.43678,-0.150541 0.52985,-0.539087 0.20866,-0.871174 L 89.229711,49.881528 c -0.32118,-0.332089 -0.93138,-0.478249 -1.36817,-0.327709 z m -1e-4,32.070453 c -0.43724,0.150698 -0.5304,0.539646 -0.20889,0.872084 L 101.0608,96.359998 c 0.32152,0.332445 0.93236,0.478755 1.3696,0.328054 0.43724,-0.150693 0.53041,-0.539645 0.20888,-0.87209 L 89.231041,81.952322 c -0.32152,-0.332433 -0.93236,-0.478744 -1.3696,-0.32805 z m 0.45564,2.08e-4 c 0.43701,0.150619 0.53013,0.539373 0.20878,0.871643 l -13.40884,13.864265 c -0.32136,0.332274 -0.9319,0.478504 -1.36891,0.327892 -0.43702,-0.150621 -0.53013,-0.539375 -0.20878,-0.87165 l 13.40885,-13.864264 c 0.32135,-0.332269 0.93188,-0.478506 1.3689,-0.327886 z m -1.12201,-32.070612 h 1.82113 V 82.16793 h -1.82113 z m 1.22147,-47.8552306 c 0.6166,0 1.11299,0.4963928 1.11299,1.1129886 v 22.259776 c 0,0.616596 -0.49639,1.112989 -1.11299,1.112989 -0.61659,0 -1.11299,-0.496393 -1.11299,-1.112989 V 2.8116269 c 0,-0.6165958 0.4964,-1.1129886 1.11299,-1.1129886 z m -85.700213,0 c 0.616596,0 1.112989,0.4963928 1.112989,1.1129886 V 121.73018 c 0,0.61659 -0.496393,1.11299 -1.112989,1.11299 -0.616596,0 -1.112988,-0.4964 -1.112988,-1.11299 V 2.8116269 c 0,-0.6165958 0.496392,-1.1129886 1.112988,-1.1129886 z m 0,0 h 85.700123 c 0.61659,0 1.11298,0.4963928 1.11298,1.1129886 0,0.6165956 -0.49639,1.1129885 -1.11298,1.1129885 H 2.716328 c -0.616596,0 -1.112988,-0.4963929 -1.112988,-1.1129885 0,-0.6165958 0.496392,-1.1129886 1.112988,-1.1129886 z" />
</svg>
